<mxfile host="app.diagrams.net" agent="Mozilla/5.0 (Windows NT 10.0; Win64; x64) AppleWebKit/537.36 (KHTML, like Gecko) Chrome/129.0.0.0 Safari/537.36" version="24.8.1">
  <diagram name="Page-1" id="by-MmvdDjZqGy2qgRy-2">
    <mxGraphModel dx="1050" dy="570" grid="1" gridSize="10" guides="1" tooltips="1" connect="1" arrows="1" fold="1" page="1" pageScale="1" pageWidth="827" pageHeight="1169" math="0" shadow="0">
      <root>
        <mxCell id="0" />
        <mxCell id="1" parent="0" />
        <mxCell id="A2SrDBhCzwY3KyNIF4se-1" value="&lt;font face=&quot;Times New Roman&quot;&gt;无人机悬停采集出事视频V&lt;span style=&quot;font-size: 10px;&quot;&gt;&lt;sub&gt;1&lt;/sub&gt;&lt;/span&gt;&lt;/font&gt;" style="rounded=0;whiteSpace=wrap;html=1;" vertex="1" parent="1">
          <mxGeometry x="190" y="30" width="120" height="50" as="geometry" />
        </mxCell>
        <mxCell id="A2SrDBhCzwY3KyNIF4se-3" value="&lt;font face=&quot;Times New Roman&quot;&gt;在V&lt;sub&gt;1&lt;/sub&gt;中获取待测结构外的背景作为参考区域视频V&lt;sub&gt;2&lt;/sub&gt;&lt;font class=&quot;__Cici__translate__ __Cici_translate_similar_text_content__&quot;&gt;&lt;font style=&quot;display: none;&quot; class=&quot;__Cici_translate_origin_node__&quot;&gt;在V&lt;sub data-text-content=&quot;1&quot;&gt;1&lt;/sub&gt;中获取静止背景作为参考区域视频V&lt;sub data-text-content=&quot;2&quot;&gt;2&lt;/sub&gt;&lt;/font&gt; &lt;font style=&quot;display: inline-block;&quot; class=&quot;__Cici_translate_translated_inject_node__&quot;&gt;&lt;span&gt;在V1中获取静止背景作为参考区域视频V2&lt;/span&gt;&lt;/font&gt;&lt;/font&gt;&lt;/font&gt;" style="rounded=0;whiteSpace=wrap;html=1;" vertex="1" parent="1">
          <mxGeometry x="190" y="110" width="120" height="70" as="geometry" />
        </mxCell>
        <mxCell id="A2SrDBhCzwY3KyNIF4se-5" value="&lt;font face=&quot;Times New Roman&quot;&gt;对视频V&lt;sub&gt;2&lt;/sub&gt;逐帧作为时间序列输入&lt;/font&gt;&lt;font class=&quot;__Cici__translate__ __Cici_translate_similar_text_content__&quot;&gt;&lt;font style=&quot;display: none;&quot; class=&quot;__Cici_translate_origin_node__&quot;&gt;将参考帧与第n&lt;/font&gt;&lt;font style=&quot;display: inline-block;&quot; class=&quot;__Cici_translate_translated_inject_node__&quot;&gt;&lt;span&gt;将参考帧与第n&lt;/span&gt;&lt;/font&gt;&lt;/font&gt;" style="rounded=0;whiteSpace=wrap;html=1;" vertex="1" parent="1">
          <mxGeometry x="190" y="210" width="120" height="50" as="geometry" />
        </mxCell>
        <mxCell id="A2SrDBhCzwY3KyNIF4se-6" value="使用FlowFormer神经网络计算帧与帧之间图像的光流&lt;font class=&quot;__Cici__translate__ __Cici_translate_similar_text_content__&quot;&gt;&lt;font style=&quot;display: none;&quot; class=&quot;__Cici_translate_origin_node__&quot;&gt;使用FlowFormer&lt;/font&gt;&lt;font style=&quot;display: inline-block;&quot; class=&quot;__Cici_translate_translated_inject_node__&quot;&gt;&lt;span&gt;使用FlowFormer&lt;/span&gt;&lt;/font&gt;&lt;/font&gt;" style="rounded=0;whiteSpace=wrap;html=1;" vertex="1" parent="1">
          <mxGeometry x="190" y="290" width="120" height="60" as="geometry" />
        </mxCell>
        <mxCell id="A2SrDBhCzwY3KyNIF4se-7" value="通过得到的&lt;font class=&quot;__Cici__translate__&quot;&gt;&lt;font style=&quot;display: none;&quot; class=&quot;__Cici_translate_origin_node__&quot;&gt;ton&lt;/font&gt;&amp;nbsp;flo格式的光流数据计算目标整像素位移数据&lt;/font&gt;" style="rounded=0;whiteSpace=wrap;html=1;" vertex="1" parent="1">
          <mxGeometry x="190" y="380" width="120" height="60" as="geometry" />
        </mxCell>
        <mxCell id="A2SrDBhCzwY3KyNIF4se-8" value="&lt;font face=&quot;Times New Roman&quot;&gt;基于整像素的位移数据对视频V&lt;sub&gt;1&lt;/sub&gt;的每帧进行启发式图像平移变换保存为视频V&lt;sub&gt;3&lt;/sub&gt;&lt;/font&gt;&lt;font class=&quot;__Cici__translate__ __Cici_translate_similar_text_content__&quot;&gt;&lt;font style=&quot;display: none;&quot; class=&quot;__Cici_translate_origin_node__&quot;&gt;基于整像素的位移数据对视频帧进行启发式图像平移变换保存为视频&lt;/font&gt;&lt;font style=&quot;display: block;&quot; class=&quot;__Cici_translate_translated_inject_node__ __Cici_translate_need_wrapper__&quot;&gt;&lt;span&gt;基于整像素的位移数据对视频帧进行启发式图像平移变换保存为视频&lt;/span&gt;&lt;/font&gt;&lt;/font&gt;" style="rounded=0;whiteSpace=wrap;html=1;" vertex="1" parent="1">
          <mxGeometry x="190" y="470" width="120" height="75" as="geometry" />
        </mxCell>
        <mxCell id="A2SrDBhCzwY3KyNIF4se-9" value="&lt;div style=&quot;&quot;&gt;&lt;span style=&quot;font-family: &amp;quot;Times New Roman&amp;quot;; background-color: initial;&quot;&gt;对视频V&lt;font class=&quot;__Cici__translate__ __Cici_translate_similar_text_content__&quot;&gt;&lt;font style=&quot;display: none;&quot; class=&quot;__Cici_translate_origin_node__&quot;&gt;对视频V&lt;/font&gt; &lt;font style=&quot;display: inline-block;&quot; class=&quot;__Cici_translate_translated_inject_node__&quot;&gt;&lt;span&gt;对视频V&lt;/span&gt;&lt;/font&gt;&lt;/font&gt;&lt;/span&gt;&lt;sub style=&quot;font-family: &amp;quot;Times New Roman&amp;quot;; background-color: initial;&quot;&gt;3&lt;/sub&gt;&lt;span style=&quot;background-color: initial; font-family: &amp;quot;Times New Roman&amp;quot;;&quot;&gt;进行光流补偿算法处理亚像素噪声生成视频V&lt;sub&gt;4&lt;font data-translating=&quot;true&quot; class=&quot;__Cici__translate__&quot;&gt;&lt;font style=&quot;display: none;&quot; class=&quot;__Cici_translate_origin_node__&quot;&gt;进行光流补偿算法处理亚像素噪声生成视频V4&lt;/font&gt;&lt;font style=&quot;display: inline-block;&quot; class=&quot;__Cici_translate_loading__&quot;&gt;&lt;i&gt;&lt;/i&gt;&lt;/font&gt;&lt;/font&gt;&lt;/sub&gt;&lt;/span&gt;&lt;/div&gt;&lt;font face=&quot;Times New Roman&quot;&gt;&lt;div style=&quot;&quot;&gt;&lt;span style=&quot;background-color: initial;&quot;&gt;&lt;font class=&quot;__Cici__translate__ __Cici_translate_similar_text_content__&quot;&gt;&lt;font style=&quot;display: none;&quot; class=&quot;__Cici_translate_origin_node__&quot;&gt;进行光流补偿算法处理亚像素噪声生成视频V4&lt;/font&gt;&lt;font style=&quot;display: block;&quot; class=&quot;__Cici_translate_translated_inject_node__ __Cici_translate_need_wrapper__&quot;&gt;&lt;span&gt;进行光流补偿算法处理亚像素噪声生成视频V4&lt;/span&gt;&lt;/font&gt;&lt;/font&gt;&lt;/span&gt;&lt;/div&gt;&lt;/font&gt;&lt;font style=&quot;font-family: Verdana;&quot; class=&quot;__Cici__translate__ __Cici_translate_similar_text_content__&quot;&gt;&lt;font style=&quot;display: none;&quot; class=&quot;__Cici_translate_origin_node__&quot;&gt;对视频V3进行光流补偿算法处理亚像素噪声&lt;/font&gt;&lt;font style=&quot;display: inline-block;&quot; class=&quot;__Cici_translate_translated_inject_node__&quot;&gt;&lt;span&gt;对视频V3进行光流补偿算法处理亚像素噪声&lt;/span&gt;&lt;/font&gt;&lt;/font&gt;" style="rounded=0;whiteSpace=wrap;html=1;" vertex="1" parent="1">
          <mxGeometry x="190" y="670" width="120" height="70" as="geometry" />
        </mxCell>
        <mxCell id="A2SrDBhCzwY3KyNIF4se-11" value="&lt;br&gt;&lt;span style=&quot;color: rgb(0, 0, 0); font-family: &amp;quot;Times New Roman&amp;quot;; font-size: 12px; font-style: normal; font-variant-ligatures: normal; font-variant-caps: normal; font-weight: 400; letter-spacing: normal; orphans: 2; text-align: center; text-indent: 0px; text-transform: none; widows: 2; word-spacing: 0px; -webkit-text-stroke-width: 0px; white-space: normal; background-color: rgb(251, 251, 251); text-decoration-thickness: initial; text-decoration-style: initial; text-decoration-color: initial; display: inline !important; float: none;&quot;&gt;在V&lt;sub&gt;3&lt;/sub&gt;中获取待测结构外的背景作为参考区域&lt;font class=&quot;__Cici__translate__ __Cici_translate_similar_text_content__&quot;&gt;&lt;font style=&quot;display: none;&quot; class=&quot;__Cici_translate_origin_node__&quot;&gt;在V&lt;sub data-text-content=&quot;3&quot;&gt;3&lt;/sub&gt;中获取静止背景作为参考区域&lt;/font&gt;&lt;font style=&quot;display: inline-block;&quot; class=&quot;__Cici_translate_translated_inject_node__&quot;&gt;&lt;span&gt;在V3中获取静止背景作为参考区域&lt;/span&gt;&lt;/font&gt;&lt;/font&gt;&lt;/span&gt;&lt;div&gt;&lt;br&gt;&lt;/div&gt;" style="rounded=0;whiteSpace=wrap;html=1;" vertex="1" parent="1">
          <mxGeometry x="190" y="580" width="120" height="60" as="geometry" />
        </mxCell>
        <mxCell id="A2SrDBhCzwY3KyNIF4se-12" value="&lt;font face=&quot;Times New Roman&quot;&gt;使用基于&lt;/font&gt;&lt;font style=&quot;background-color: initial;&quot; face=&quot;M3rHPRTttsDQLHMKlIXt&quot;&gt;可变分金字塔的运动放大的光流算法对V4待测区域进行光流追&lt;/font&gt;&lt;span style=&quot;background-color: initial;&quot;&gt;踪&lt;/span&gt;" style="rounded=0;whiteSpace=wrap;html=1;" vertex="1" parent="1">
          <mxGeometry x="190" y="780" width="120" height="70" as="geometry" />
        </mxCell>
        <mxCell id="A2SrDBhCzwY3KyNIF4se-13" value="&lt;font class=&quot;__Cici__translate__&quot;&gt;得到真实的待测结构的像素位移时程数据&lt;/font&gt;" style="rounded=0;whiteSpace=wrap;html=1;" vertex="1" parent="1">
          <mxGeometry x="190" y="870" width="120" height="60" as="geometry" />
        </mxCell>
        <mxCell id="A2SrDBhCzwY3KyNIF4se-14" value="像素位移时程数据乘以比例因子转换为真实位移&lt;font class=&quot;__Cici__translate__ __Cici_translate_similar_text_content__&quot;&gt;&lt;font style=&quot;display: none;&quot; class=&quot;__Cici_translate_origin_node__&quot;&gt;像素&lt;/font&gt;&lt;font style=&quot;display: inline-block;&quot; class=&quot;__Cici_translate_translated_inject_node__&quot;&gt;&lt;span&gt;像素&lt;/span&gt;&lt;/font&gt;&lt;/font&gt;" style="rounded=0;whiteSpace=wrap;html=1;" vertex="1" parent="1">
          <mxGeometry x="190" y="950" width="120" height="60" as="geometry" />
        </mxCell>
        <mxCell id="A2SrDBhCzwY3KyNIF4se-15" value="通过多个测点的数据进行傅里叶变换将时域数据转换到频域并进行模态分析&lt;font class=&quot;__Cici__translate__ __Cici_translate_similar_text_content__&quot;&gt;&lt;font style=&quot;display: none;&quot; class=&quot;__Cici_translate_origin_node__&quot;&gt;通过傅里叶变换将时域数据转换到频域并进行模态分析&lt;/font&gt;&lt;font style=&quot;display: block;&quot; class=&quot;__Cici_translate_translated_inject_node__ __Cici_translate_need_wrapper__&quot;&gt;&lt;span&gt;通过傅里叶变换将时域数据转换到频域并进行模态分析&lt;/span&gt;&lt;/font&gt;&lt;/font&gt;" style="rounded=0;whiteSpace=wrap;html=1;" vertex="1" parent="1">
          <mxGeometry x="190" y="1020" width="120" height="80" as="geometry" />
        </mxCell>
      </root>
    </mxGraphModel>
  </diagram>
</mxfile>
